<svg width="182" height="45" viewBox="0 0 182 45" fill="none" xmlns="http://www.w3.org/2000/svg">
<mask id="mask0_292_25" style="mask-type:luminance" maskUnits="userSpaceOnUse" x="0" y="0" width="45" height="45">
<path d="M44.0312 0.953125H0.03125V44.9531H44.0312V0.953125Z" fill="white"/>
</mask>
<g mask="url(#mask0_292_25)">
<path d="M27.3006 3.07482L23.0798 1.94385L19.5229 15.2185L16.3116 3.23406L12.0907 4.36503L15.5604 17.3133L6.91849 8.67154L3.82863 11.7614L13.3076 21.2405L1.50304 18.0774L0.37207 22.2982L13.2701 25.7542C13.1224 25.1173 13.0443 24.4537 13.0443 23.7718C13.0443 18.9451 16.9571 15.0323 21.7838 15.0323C26.6105 15.0323 30.5233 18.9451 30.5233 23.7718C30.5233 24.4493 30.446 25.1088 30.3002 25.742L42.0221 28.8828L43.153 24.6621L30.2038 21.1923L42.0092 18.029L40.8782 13.8082L27.9293 17.2778L36.5713 8.63606L33.4813 5.5462L24.1339 14.8937L27.3006 3.07482Z" fill="#FE4A0F"/>
<path d="M30.288 25.791C29.9261 27.321 29.1621 28.6954 28.1138 29.7965L36.6058 38.2887L39.6957 35.1988L30.288 25.791Z" fill="#FE4A0F"/>
<path d="M28.028 29.8855C26.9671 30.9691 25.6263 31.7777 24.1228 32.1945L27.2129 43.7267L31.4337 42.5957L28.028 29.8855Z" fill="#FE4A0F"/>
<path d="M23.9652 32.2366C23.2676 32.4159 22.5365 32.5112 21.783 32.5112C20.9758 32.5112 20.1941 32.4017 19.452 32.1968L16.3591 43.7397L20.5799 44.8706L23.9652 32.2366Z" fill="#FE4A0F"/>
<path d="M19.3027 32.1544C17.8222 31.717 16.5053 30.898 15.466 29.8113L6.95312 38.3243L10.043 41.4141L19.3027 32.1544Z" fill="#FE4A0F"/>
<path d="M15.396 29.7359C14.3745 28.6423 13.6305 27.2863 13.2764 25.78L1.51611 28.9311L2.64707 33.1519L15.396 29.7359Z" fill="#FE4A0F"/>
</g>
<path d="M68.5514 11.8623V27.0723L58.8014 11.8623H54.9014V32.8623H58.8014V17.7723L68.5514 32.8623H72.4514V11.8623H68.5514Z" fill="#FE4A0F"/>
<path d="M74.209 15.7923H78.229V11.8623H74.209V15.7923ZM74.269 32.8623V17.8623H78.169V32.8623H74.269Z" fill="#FE4A0F"/>
<path d="M94.9488 25.3624C94.9488 20.1724 91.2588 17.7124 87.3588 17.6824C83.4288 17.6524 79.7988 20.1724 79.7988 25.3624C79.7988 30.5524 83.4288 33.0724 87.3588 33.0424C90.9288 33.0124 93.3888 31.3624 94.5288 28.6324L91.4988 27.3724C90.5688 29.2324 89.0988 29.8924 87.3588 29.9224C85.8588 29.9524 84.1488 29.2324 83.7888 26.5624H94.8588C94.9188 26.1724 94.9488 25.7824 94.9488 25.3624ZM87.3588 20.7724C88.8588 20.8024 90.3888 21.6124 90.8688 23.7724H83.8488C84.3588 21.5824 85.8888 20.7424 87.3588 20.7724Z" fill="#FE4A0F"/>
<path d="M103.962 20.6524V17.6824H101.502V13.6624L97.602 14.8624V17.6824H95.142V20.6524H97.602V28.4224C97.602 31.3624 97.842 32.8624 102.402 32.8624H103.452V29.4424H102.402C101.682 29.4424 101.502 29.3224 101.502 28.4224V20.6524H103.962Z" fill="#FE4A0F"/>
<path d="M109.757 29.5923L118.037 21.1323V17.8623H105.617V21.1323H113.657L105.377 29.5923V32.8623H118.127V29.5923H109.757Z" fill="#FE4A0F"/>
<path d="M119.525 28.6323L123.455 28.0323C123.725 29.5323 125.495 30.1023 126.575 30.1023C127.685 30.1023 129.605 29.8623 129.605 28.0623C129.605 24.5523 119.975 28.9323 119.975 22.2123C119.975 17.8923 124.985 17.6523 126.575 17.6523C128.075 17.6523 132.425 17.8923 133.325 21.3723L129.605 22.1523C129.275 20.5623 127.595 20.2623 126.695 20.2623C125.795 20.2623 123.875 20.4723 123.875 22.2123C123.875 25.6923 133.505 21.2523 133.505 28.0623C133.505 32.6523 128.225 33.0423 126.575 33.0423C125.075 33.0423 120.305 32.6523 119.525 28.6323Z" fill="#FE4A0F"/>
<path d="M138.572 25.3624C138.572 29.0224 140.522 30.1324 142.562 30.1024C144.392 30.0724 145.652 29.3224 146.402 27.2224L149.612 28.7824C148.442 31.8424 145.592 33.0124 142.562 33.0424C138.632 33.0724 134.672 30.5524 134.672 25.3624C134.672 20.1724 138.632 17.6524 142.562 17.6824C145.592 17.7124 148.442 18.8824 149.612 21.9424L146.402 23.5024C145.652 21.4024 144.392 20.6524 142.562 20.6224C140.522 20.5924 138.572 21.7024 138.572 25.3624Z" fill="#FE4A0F"/>
<path d="M160.081 17.6223C158.071 17.6223 156.241 18.6723 155.071 20.9223V11.8623H151.171V32.8623H155.071V27.5523C155.071 20.6823 157.921 20.1123 158.971 20.1123C160.651 20.1123 160.891 21.8523 160.891 24.4023V32.8623H164.791V24.4023C164.791 21.2223 164.281 17.6223 160.081 17.6223Z" fill="#FE4A0F"/>
<path d="M181.257 25.3624C181.257 20.1724 177.567 17.7124 173.667 17.6824C169.737 17.6524 166.107 20.1724 166.107 25.3624C166.107 30.5524 169.737 33.0724 173.667 33.0424C177.237 33.0124 179.697 31.3624 180.837 28.6324L177.807 27.3724C176.877 29.2324 175.407 29.8924 173.667 29.9224C172.167 29.9524 170.457 29.2324 170.097 26.5624H181.167C181.227 26.1724 181.257 25.7824 181.257 25.3624ZM173.667 20.7724C175.167 20.8024 176.697 21.6124 177.177 23.7724H170.157C170.667 21.5824 172.197 20.7424 173.667 20.7724Z" fill="#FE4A0F"/>
</svg>
