<svg width="168" height="42" viewBox="0 0 168 42" fill="none" xmlns="http://www.w3.org/2000/svg">
<path fill-rule="evenodd" clip-rule="evenodd" d="M20.5106 0.405539C20.0055 0.301669 19.4847 0.301669 18.9796 0.405539C18.3958 0.525609 17.874 0.817869 17.4592 1.05022L17.3461 1.11338L3.28665 8.92424C3.24778 8.94584 3.20773 8.96784 3.16669 8.99044C2.72755 9.23234 2.17541 9.53644 1.75139 9.99654C1.38479 10.3944 1.10736 10.8658 0.937652 11.3795C0.741357 11.9736 0.743654 12.604 0.74548 13.1053C0.745651 13.1522 0.745818 13.1979 0.745818 13.2423V28.6643C0.745818 28.7087 0.745651 28.7545 0.74548 28.8013C0.743654 29.3027 0.741357 29.933 0.937653 30.5271C1.10736 31.0408 1.38479 31.5123 1.75139 31.9101C2.17541 32.3702 2.72756 32.6743 3.16669 32.9162C3.20773 32.9388 3.24778 32.9609 3.28665 32.9825L17.3461 40.7933L17.4592 40.8564C17.874 41.0888 18.3958 41.3811 18.9796 41.5011C19.4847 41.605 20.0055 41.605 20.5106 41.5011C21.0944 41.3811 21.6162 41.0888 22.031 40.8564L22.1441 40.7933L36.2036 32.9825C36.2208 32.9729 36.2382 32.9633 36.2558 32.9535C36.278 32.9413 36.3006 32.9288 36.3235 32.9162C36.7627 32.6743 37.3148 32.3702 37.7388 31.9101C38.1054 31.5123 38.3829 31.0408 38.5526 30.5271C38.7489 29.933 38.7466 29.3027 38.7447 28.8013C38.7446 28.7545 38.7444 28.7087 38.7444 28.6643V13.2423C38.7444 13.1979 38.7446 13.1522 38.7447 13.1053C38.7466 12.604 38.7489 11.9736 38.5526 11.3795C38.3829 10.8658 38.1054 10.3943 37.7388 9.99654C37.3148 9.53644 36.7627 9.23234 36.3235 8.99044L36.322 8.98964C36.2815 8.96734 36.2419 8.94554 36.2036 8.92424L22.1441 1.11338L22.031 1.05021C21.6162 0.817859 21.0944 0.525609 20.5106 0.405539ZM19.1915 4.43506C19.4794 4.2751 19.6264 4.19428 19.736 4.1414L19.7451 4.13705L19.7542 4.1414C19.8638 4.19428 20.0108 4.2751 20.2987 4.43506L32.9322 11.4536L19.745 18.7798L6.55797 11.4537L19.1915 4.43506ZM4.54568 14.6826L17.8451 22.0712L17.8452 36.7236L5.13203 29.6608C4.82813 29.4919 4.67297 29.4048 4.56411 29.3355L4.55492 29.3296L4.55423 29.3187C4.54647 29.1899 4.54568 29.0119 4.54568 28.6643V14.6826Z" fill="#FE4A0F"/>
<path d="M56.0359 27.3026H62.0839V30.8666H51.4189V11.9126H56.0359V27.3026Z" fill="#FE4A0F"/>
<path d="M66.338 14.2347C65.528 14.2347 64.862 14.0007 64.34 13.5327C63.836 13.0467 63.584 12.4527 63.584 11.7507C63.584 11.0307 63.836 10.4367 64.34 9.96875C64.862 9.48275 65.528 9.23975 66.338 9.23975C67.13 9.23975 67.778 9.48275 68.282 9.96875C68.804 10.4367 69.065 11.0307 69.065 11.7507C69.065 12.4527 68.804 13.0467 68.282 13.5327C67.778 14.0007 67.13 14.2347 66.338 14.2347ZM68.633 15.8007V30.8667H64.016V15.8007H68.633Z" fill="#FE4A0F"/>
<path d="M77.433 15.585C78.495 15.585 79.422 15.801 80.214 16.233C81.024 16.665 81.645 17.232 82.077 17.934V15.801H86.694V30.84C86.694 32.226 86.415 33.477 85.857 34.593C85.317 35.727 84.48 36.627 83.346 37.293C82.23 37.959 80.835 38.292 79.161 38.292C76.929 38.292 75.12 37.761 73.734 36.699C72.348 35.655 71.556 34.233 71.358 32.433H75.921C76.065 33.009 76.407 33.459 76.947 33.783C77.487 34.125 78.153 34.296 78.945 34.296C79.899 34.296 80.655 34.017 81.213 33.459C81.789 32.919 82.077 32.046 82.077 30.84V28.707C81.627 29.409 81.006 29.985 80.214 30.435C79.422 30.867 78.495 31.083 77.433 31.083C76.191 31.083 75.066 30.768 74.058 30.138C73.05 29.49 72.249 28.581 71.655 27.411C71.079 26.223 70.791 24.855 70.791 23.307C70.791 21.759 71.079 20.4 71.655 19.23C72.249 18.06 73.05 17.16 74.058 16.53C75.066 15.9 76.191 15.585 77.433 15.585ZM82.077 23.334C82.077 22.182 81.753 21.273 81.105 20.607C80.475 19.941 79.701 19.608 78.783 19.608C77.865 19.608 77.082 19.941 76.434 20.607C75.804 21.255 75.489 22.155 75.489 23.307C75.489 24.459 75.804 25.377 76.434 26.061C77.082 26.727 77.865 27.06 78.783 27.06C79.701 27.06 80.475 26.727 81.105 26.061C81.753 25.395 82.077 24.486 82.077 23.334Z" fill="#FE4A0F"/>
<path d="M99.0252 15.6387C100.753 15.6387 102.139 16.2147 103.183 17.3667C104.227 18.5007 104.749 20.0667 104.749 22.0647V30.8667H100.159V22.6857C100.159 21.6777 99.8982 20.8947 99.3762 20.3367C98.8542 19.7787 98.1522 19.4997 97.2702 19.4997C96.3882 19.4997 95.6862 19.7787 95.1642 20.3367C94.6422 20.8947 94.3812 21.6777 94.3812 22.6857V30.8667H89.7642V10.8867H94.3812V17.8257C94.8492 17.1597 95.4882 16.6287 96.2982 16.2327C97.1082 15.8367 98.0172 15.6387 99.0252 15.6387Z" fill="#FE4A0F"/>
<path d="M116.084 26.9519V30.8669H113.735C112.061 30.8669 110.756 30.4619 109.82 29.6519C108.884 28.8239 108.416 27.4829 108.416 25.6289V19.6349H106.58V15.8009H108.416V12.1289H113.033V15.8009H116.057V19.6349H113.033V25.6829C113.033 26.1329 113.141 26.4569 113.357 26.6549C113.573 26.8529 113.933 26.9519 114.437 26.9519H116.084Z" fill="#FE4A0F"/>
<path d="M123.003 17.9337C123.435 17.2317 124.056 16.6647 124.866 16.2327C125.676 15.8007 126.603 15.5847 127.647 15.5847C128.889 15.5847 130.014 15.8997 131.022 16.5297C132.03 17.1597 132.822 18.0597 133.398 19.2297C133.992 20.3997 134.289 21.7587 134.289 23.3067C134.289 24.8547 133.992 26.2227 133.398 27.4107C132.822 28.5807 132.03 29.4897 131.022 30.1377C130.014 30.7677 128.889 31.0827 127.647 31.0827C126.585 31.0827 125.658 30.8757 124.866 30.4617C124.074 30.0297 123.453 29.4627 123.003 28.7607V30.8667H118.386V10.8867H123.003V17.9337ZM129.591 23.3067C129.591 22.1547 129.267 21.2547 128.619 20.6067C127.989 19.9407 127.206 19.6077 126.27 19.6077C125.352 19.6077 124.569 19.9407 123.921 20.6067C123.291 21.2727 122.976 22.1817 122.976 23.3337C122.976 24.4857 123.291 25.3947 123.921 26.0607C124.569 26.7267 125.352 27.0597 126.27 27.0597C127.188 27.0597 127.971 26.7267 128.619 26.0607C129.267 25.3767 129.591 24.4587 129.591 23.3067Z" fill="#FE4A0F"/>
<path d="M143.299 31.083C141.823 31.083 140.491 30.768 139.303 30.138C138.133 29.508 137.206 28.608 136.522 27.438C135.856 26.268 135.523 24.9 135.523 23.334C135.523 21.786 135.865 20.427 136.549 19.257C137.233 18.069 138.169 17.16 139.357 16.53C140.545 15.9 141.877 15.585 143.353 15.585C144.829 15.585 146.161 15.9 147.349 16.53C148.537 17.16 149.473 18.069 150.157 19.257C150.841 20.427 151.183 21.786 151.183 23.334C151.183 24.882 150.832 26.25 150.13 27.438C149.446 28.608 148.501 29.508 147.295 30.138C146.107 30.768 144.775 31.083 143.299 31.083ZM143.299 27.087C144.181 27.087 144.928 26.763 145.54 26.115C146.17 25.467 146.485 24.54 146.485 23.334C146.485 22.128 146.179 21.201 145.567 20.553C144.973 19.905 144.235 19.581 143.353 19.581C142.453 19.581 141.706 19.905 141.112 20.553C140.518 21.183 140.221 22.11 140.221 23.334C140.221 24.54 140.509 25.467 141.085 26.115C141.679 26.763 142.417 27.087 143.299 27.087Z" fill="#FE4A0F"/>
<path d="M162.273 30.8668L159.384 26.6818L156.954 30.8668H151.959L156.927 23.1718L151.824 15.8008H157.008L159.897 19.9588L162.327 15.8008H167.322L162.273 23.3878L167.457 30.8668H162.273Z" fill="#FE4A0F"/>
</svg>
