<svg width="198" height="45" viewBox="0 0 198 45" fill="none" xmlns="http://www.w3.org/2000/svg">
<path d="M30.8859 0.953125H14.0281L0.457031 14.5242V31.382L14.0281 44.9531H30.8859L44.457 31.382V14.5242L30.8859 0.953125ZM16.3606 31.5941L7.66669 22.9001L16.3606 14.2061C19.6474 10.9194 25.0546 10.9194 28.3414 14.2061L37.0353 22.9001L28.3414 31.5941C25.0546 34.8808 19.7534 34.8808 16.3606 31.5941Z" fill="#FE4A0F"/>
<path d="M63.7971 33.1931C66.4971 33.1931 68.717 31.8131 69.407 29.7431V32.9531H73.3971V24.8531C73.3971 23.0231 71.9571 21.4631 70.0071 21.4631H64.307V24.8531H68.3571C68.8671 24.8531 69.197 25.1831 69.197 25.6931C69.197 27.6431 66.617 29.5331 64.007 29.5331C60.527 29.5331 57.7671 26.8031 57.7671 22.4531C57.7671 18.1031 60.5271 15.5831 64.097 15.5831C66.797 15.5831 68.657 17.0531 68.987 19.3031H73.4571C73.187 14.8031 69.407 11.7131 64.127 11.7131C58.577 11.7131 53.4771 15.2831 53.4771 22.4531C53.4771 29.6231 58.4271 33.1931 63.7971 33.1931Z" fill="#FE4A0F"/>
<path d="M75.1099 32.9532H79.2799V11.2632H75.1099V32.9532Z" fill="#FE4A0F"/>
<path d="M88.2749 33.1933C92.9249 33.1933 96.2549 29.8933 96.2549 25.3933C96.2549 20.8933 92.9249 17.5933 88.2749 17.5933C83.6249 17.5933 80.2949 20.8933 80.2949 25.3933C80.2949 29.8933 83.6249 33.1933 88.2749 33.1933ZM88.2749 29.5933C86.0249 29.5933 84.4949 27.8833 84.4949 25.3933C84.4949 22.8733 86.0249 21.1633 88.2749 21.1633C90.5249 21.1633 92.0549 22.8733 92.0549 25.3933C92.0549 27.8833 90.5249 29.5933 88.2749 29.5933Z" fill="#FE4A0F"/>
<path d="M105.586 33.1932C110.056 33.1932 112.726 30.1032 112.726 25.3932C112.726 20.6832 110.056 17.5932 105.646 17.5932C103.756 17.5932 102.286 18.3132 101.446 19.4232V11.2632H97.2759V32.9532H101.446V31.3032C102.286 32.4732 103.846 33.1932 105.586 33.1932ZM104.926 29.5932C102.676 29.5932 101.206 27.9132 101.206 25.3932C101.206 22.8432 102.676 21.1632 104.926 21.1632C107.116 21.1632 108.616 22.8432 108.616 25.3932C108.616 27.9132 107.116 29.5932 104.926 29.5932Z" fill="#FE4A0F"/>
<path d="M119.706 17.5933C115.566 17.5933 113.106 20.0233 112.926 23.0533H116.646C116.706 21.7933 117.636 20.6533 119.466 20.6533C121.176 20.6533 122.166 21.5233 122.166 22.7833C122.166 23.4133 121.776 23.8933 121.026 23.8933H118.476C115.176 23.8933 112.956 25.6933 112.956 28.6633C112.956 31.2433 114.966 33.1933 117.906 33.1933C119.976 33.1933 121.656 32.2633 122.166 30.8533V32.9533H126.306V23.2333C126.306 19.8133 123.516 17.5933 119.706 17.5933ZM118.956 30.1633C117.786 30.1633 116.946 29.4733 116.946 28.4833C116.946 27.3133 117.846 26.5333 119.106 26.5333H122.166V26.7433C122.166 28.6633 120.996 30.1633 118.956 30.1633Z" fill="#FE4A0F"/>
<path d="M127.909 32.9532H132.079V11.2632H127.909V32.9532Z" fill="#FE4A0F"/>
<path d="M134.294 32.9531H142.874C147.314 32.9531 150.374 30.6731 150.374 26.6831C150.374 23.9231 148.754 22.2431 146.834 21.4931C148.064 20.8331 149.294 19.3331 149.294 17.3531C149.294 13.8431 146.444 11.9531 142.634 11.9531H134.294V32.9531ZM138.734 19.9631V15.5231H142.214C144.224 15.5231 145.124 16.3331 145.124 17.7431C145.124 19.1531 144.224 19.9631 142.304 19.9631H138.734ZM138.734 29.0531V23.7731H142.484C144.974 23.7731 146.084 24.7331 146.084 26.4431C146.084 28.1531 144.974 29.0531 142.484 29.0531H138.734Z" fill="#FE4A0F"/>
<path d="M157.628 17.5933C153.488 17.5933 151.028 20.0233 150.848 23.0533H154.568C154.628 21.7933 155.558 20.6533 157.388 20.6533C159.098 20.6533 160.088 21.5233 160.088 22.7833C160.088 23.4133 159.698 23.8933 158.948 23.8933H156.398C153.098 23.8933 150.878 25.6933 150.878 28.6633C150.878 31.2433 152.888 33.1933 155.828 33.1933C157.898 33.1933 159.578 32.2633 160.088 30.8533V32.9533H164.228V23.2333C164.228 19.8133 161.438 17.5933 157.628 17.5933ZM156.878 30.1633C155.708 30.1633 154.868 29.4733 154.868 28.4833C154.868 27.3133 155.768 26.5333 157.028 26.5333H160.088V26.7433C160.088 28.6633 158.918 30.1633 156.878 30.1633Z" fill="#FE4A0F"/>
<path d="M165.591 32.9533H169.791V24.6733C169.791 22.7233 171.081 21.3133 172.911 21.3133C174.651 21.3133 175.821 22.6333 175.821 24.4633V32.9533H180.021V23.5333C180.021 20.0533 177.801 17.5933 174.381 17.5933C172.311 17.5933 170.631 18.4633 169.791 19.9333V17.8333H165.591V32.9533Z" fill="#FE4A0F"/>
<path d="M191.991 32.9532H197.031L190.521 23.7732L196.551 17.8332H191.271L186.021 22.9932V11.2632H181.821V32.9532H186.021V28.2132L187.701 26.5632L191.991 32.9532Z" fill="#FE4A0F"/>
</svg>
