<svg width="153" height="22" viewBox="0 0 153 22" fill="none" xmlns="http://www.w3.org/2000/svg">
<path d="M141.74 12.0199V4.73466H145.315C145.777 4.7256 146.198 4.81621 146.579 5.0065C146.96 5.19679 147.263 5.47316 147.49 5.83561C147.725 6.189 147.843 6.61941 147.843 7.12684C147.843 7.64334 147.721 8.08734 147.476 8.45885C147.24 8.82131 146.928 9.09768 146.538 9.28796C146.149 9.46919 145.714 9.5598 145.233 9.5598H142.787V8.18702H144.826C145.107 8.18702 145.347 8.10093 145.546 7.92877C145.745 7.7566 145.845 7.4893 145.845 7.12684C145.845 6.77345 145.741 6.51974 145.532 6.36569C145.333 6.20259 145.102 6.12104 144.839 6.12104H143.643V12.0199H141.74ZM146.402 8.64914L148.074 12.0199H145.981L144.431 8.64914H146.402ZM144.595 16.3693C143.507 16.3693 142.483 16.1654 141.523 15.7577C140.571 15.3409 139.733 14.77 139.008 14.0451C138.283 13.3202 137.717 12.482 137.309 11.5306C136.902 10.5701 136.698 9.54621 136.698 8.45885C136.698 7.3715 136.902 6.3521 137.309 5.40067C137.717 4.44017 138.283 3.59747 139.008 2.87256C139.733 2.14766 140.571 1.58133 141.523 1.17357C142.483 0.75675 143.507 0.54834 144.595 0.54834C145.691 0.54834 146.715 0.75675 147.666 1.17357C148.627 1.58133 149.47 2.14766 150.194 2.87256C150.919 3.59747 151.486 4.44017 151.893 5.40067C152.301 6.3521 152.505 7.3715 152.505 8.45885C152.505 9.54621 152.301 10.5701 151.893 11.5306C151.486 12.482 150.919 13.3202 150.194 14.0451C149.479 14.77 148.64 15.3409 147.68 15.7577C146.719 16.1654 145.691 16.3693 144.595 16.3693ZM144.595 14.2762C145.673 14.2762 146.651 14.0179 147.53 13.5014C148.418 12.9759 149.121 12.2736 149.637 11.3947C150.163 10.5067 150.426 9.52809 150.426 8.45885C150.426 7.38962 150.163 6.41553 149.637 5.53659C149.121 4.64858 148.418 3.94633 147.53 3.42983C146.651 2.90428 145.673 2.6415 144.595 2.6415C143.525 2.6415 142.551 2.90428 141.672 3.42983C140.793 3.94633 140.091 4.64858 139.566 5.53659C139.049 6.41553 138.791 7.38962 138.791 8.45885C138.791 9.52809 139.049 10.5067 139.566 11.3947C140.091 12.2736 140.793 12.9759 141.672 13.5014C142.551 14.0179 143.525 14.2762 144.595 14.2762Z" fill="#FE4A0F"/>
<path d="M116.908 0.820312H121.706L126.327 9.54635H126.517L131.139 0.820312H135.937L128.556 13.923V21.0723H124.302V13.923L116.908 0.820312Z" fill="#FE4A0F"/>
<path d="M99.4146 4.35422V0.820312H116.051V4.35422H109.854V21.0723H105.626V4.35422H99.4146Z" fill="#FE4A0F"/>
<path d="M97.58 0.820312V21.0723H93.883L85.089 8.33666H84.9123V21.0723H80.6445V0.820312H84.3958L93.1355 13.556H93.3122V0.820312H97.58Z" fill="#FE4A0F"/>
<path d="M73.7394 0.820312H78.0209V13.9637C78.0209 15.4407 77.6675 16.7365 76.9607 17.851C76.263 18.9565 75.2844 19.8174 74.0249 20.4335C72.7654 21.0497 71.2974 21.3578 69.6211 21.3578C67.9447 21.3578 66.4768 21.0497 65.2173 20.4335C63.9578 19.8174 62.9792 18.9565 62.2814 17.851C61.5837 16.7365 61.2349 15.4407 61.2349 13.9637V0.820312H65.5027V13.6104C65.5027 14.3806 65.6749 15.0692 66.0192 15.6763C66.3635 16.2744 66.8438 16.7456 67.46 17.0899C68.0761 17.4252 68.7965 17.5928 69.6211 17.5928C70.4547 17.5928 71.1796 17.4252 71.7958 17.0899C72.412 16.7456 72.8877 16.2744 73.223 15.6763C73.5673 15.0692 73.7394 14.3806 73.7394 13.6104V0.820312Z" fill="#FE4A0F"/>
<path d="M49.5048 21.344C47.7107 21.344 46.0978 20.9362 44.6661 20.1207C43.2344 19.3052 42.1017 18.1227 41.2681 16.5732C40.4344 15.0237 40.0176 13.1526 40.0176 10.9597C40.0176 8.74882 40.4344 6.8686 41.2681 5.31911C42.1017 3.76057 43.2344 2.57807 44.6661 1.77162C46.0978 0.956098 47.7107 0.54834 49.5048 0.54834C51.2989 0.54834 52.9119 0.956098 54.3435 1.77162C55.7752 2.57807 56.9034 3.76057 57.7279 5.31911C58.5616 6.8686 58.9784 8.74882 58.9784 10.9597C58.9784 13.1616 58.5616 15.0373 57.7279 16.5868C56.9034 18.1363 55.7752 19.3188 54.3435 20.1343C52.9119 20.9408 51.2989 21.344 49.5048 21.344ZM49.5048 17.5654C50.5469 17.5654 51.453 17.3117 52.2232 16.8043C52.9934 16.2968 53.5869 15.5538 54.0037 14.5752C54.4296 13.5875 54.6426 12.3824 54.6426 10.9597C54.6426 9.52809 54.4296 8.3184 54.0037 7.33072C53.5869 6.34304 52.9934 5.59548 52.2232 5.08805C51.453 4.58062 50.5469 4.3269 49.5048 4.3269C48.4718 4.3269 47.5702 4.58062 46.8 5.08805C46.0298 5.59548 45.4272 6.34304 44.9923 7.33072C44.5664 8.3184 44.3535 9.52809 44.3535 10.9597C44.3535 12.3824 44.5664 13.5875 44.9923 14.5752C45.4272 15.5538 46.0298 16.2968 46.8 16.8043C47.5702 17.3117 48.4718 17.5654 49.5048 17.5654Z" fill="#FE4A0F"/>
<path d="M29.4162 21.344C27.6221 21.344 26.0137 20.9362 24.5911 20.1207C23.1684 19.3052 22.0448 18.1227 21.2203 16.5732C20.3957 15.0237 19.9834 13.1526 19.9834 10.9597C19.9834 8.74882 20.3957 6.8686 21.2203 5.31911C22.0539 3.76057 23.182 2.57807 24.6047 1.77162C26.0363 0.956098 27.6402 0.54834 29.4162 0.54834C30.5942 0.54834 31.6861 0.715974 32.6919 1.05124C33.6977 1.37745 34.5857 1.8577 35.3559 2.49199C36.1352 3.11722 36.7695 3.88743 37.2588 4.80262C37.7481 5.70875 38.0607 6.74627 38.1966 7.91518H33.8744C33.7928 7.36244 33.6297 6.86407 33.3851 6.42006C33.1495 5.97606 32.8368 5.60001 32.4472 5.29193C32.0666 4.98385 31.6272 4.74825 31.1288 4.58515C30.6395 4.41298 30.1003 4.3269 29.5114 4.3269C28.4784 4.3269 27.5677 4.58968 26.7794 5.11524C26.0001 5.63173 25.393 6.38382 24.958 7.3715C24.5322 8.35012 24.3192 9.54621 24.3192 10.9597C24.3192 12.4005 24.5367 13.6147 24.9716 14.6024C25.4066 15.581 26.0137 16.3195 26.793 16.8179C27.5722 17.3162 28.4738 17.5654 29.4978 17.5654C30.0686 17.5654 30.5987 17.4884 31.088 17.3344C31.5773 17.1803 32.0123 16.9583 32.3928 16.6684C32.7734 16.3784 33.0906 16.025 33.3443 15.6082C33.6071 15.1823 33.7838 14.6975 33.8744 14.1538H38.1966C38.0879 15.0872 37.8115 15.9842 37.3675 16.845C36.9326 17.7059 36.339 18.4761 35.587 19.1557C34.8349 19.8262 33.9423 20.3608 32.9093 20.7595C31.8763 21.1492 30.712 21.344 29.4162 21.344Z" fill="#FE4A0F"/>
<path d="M4.96428 21.0723H0.383789L7.37005 0.820312H12.8884L19.8611 21.0723H15.2942L10.2108 5.44158H10.0477L4.96428 21.0723ZM4.69244 13.1075H15.5252V16.4511H4.69244V13.1075Z" fill="#FE4A0F"/>
</svg>
