<svg width="167" height="45" viewBox="0 0 167 45" fill="none" xmlns="http://www.w3.org/2000/svg">
<path d="M22.7573 43.4531C34.0792 43.4531 43.2573 34.275 43.2573 22.9531C43.2573 11.6313 34.0792 2.45312 22.7573 2.45312C11.4355 2.45312 2.25732 11.6313 2.25732 22.9531C2.25732 34.275 11.4355 43.4531 22.7573 43.4531Z" stroke="#FE4A0F" stroke-width="3"/>
<path d="M30.8886 31.0849C26.7492 35.2243 22.0597 37.9265 17.8833 39.0004C13.6693 40.0841 10.2726 39.4603 8.26118 37.4489C6.24977 35.4375 5.62598 32.0408 6.70961 27.8267C7.78353 23.6504 10.4857 18.9609 14.6252 14.8215C18.7646 10.6821 23.4541 7.97982 27.6305 6.9059C31.8446 5.82227 35.2412 6.44606 37.2526 8.45747C39.264 10.4689 39.8878 13.8655 38.8042 18.0796C37.7302 22.256 35.028 26.9455 30.8886 31.0849Z" stroke="#FE4A0F" stroke-width="3"/>
<path d="M30.8886 14.8214C35.028 18.9608 37.7302 23.6503 38.8042 27.8267C39.8878 32.0408 39.264 35.4374 37.2526 37.4488C35.2412 39.4602 31.8446 40.084 27.6305 39.0004C23.4541 37.9265 18.7646 35.2243 14.6252 31.0849C10.4857 26.9455 7.78353 22.256 6.7096 18.0796C5.62598 13.8655 6.24977 10.4689 8.26117 8.45747C10.2726 6.44606 13.6693 5.82227 17.8834 6.9059C22.0597 7.97982 26.7492 10.682 30.8886 14.8214Z" stroke="#FE4A0F" stroke-width="3"/>
<path d="M63.6075 32.9434C68.3175 32.9434 71.4975 30.4834 71.4975 26.5534C71.4975 18.2434 60.4575 21.7834 60.4575 17.4034C60.4575 16.1734 61.5675 15.3334 63.3375 15.3334C65.3475 15.3334 66.6075 16.4134 66.7575 18.0634H71.0475C70.9275 14.0734 67.8675 11.4634 63.3375 11.4634C59.0775 11.4634 56.0775 13.9234 56.0775 17.4034C56.0775 25.6534 66.9675 22.5034 66.9675 26.6134C66.9675 28.2034 65.6175 29.0434 63.6075 29.0434C61.3875 29.0434 59.9775 27.6934 59.7975 25.5634H55.4775C55.6575 30.0334 58.8375 32.9434 63.6075 32.9434Z" fill="#FE4A0F"/>
<path d="M72.5181 38.8233H76.6881V31.3533C77.4981 32.3733 78.968 32.9433 80.6781 32.9433C85.028 32.9433 87.968 29.8533 87.968 25.1433C87.968 20.4333 85.2681 17.3433 81.0381 17.3433C79.0881 17.3433 77.5881 18.0633 76.6881 19.2333V17.5833H72.5181V38.8233ZM80.168 29.3433C77.918 29.3433 76.4481 27.6633 76.4481 25.1433C76.4481 22.5933 77.918 20.9133 80.168 20.9133C82.3581 20.9133 83.8581 22.5933 83.8581 25.1433C83.8581 27.6633 82.3581 29.3433 80.168 29.3433Z" fill="#FE4A0F"/>
<path d="M88.9771 32.7032H93.147V24.4232C93.147 22.4732 94.4371 21.0632 96.2671 21.0632C98.0071 21.0632 99.2071 22.3832 99.2071 24.2132V32.7032H103.377V23.2832C103.377 19.8032 101.157 17.3432 97.7671 17.3432C95.6671 17.3432 94.017 18.2132 93.147 19.6832V11.0132H88.9771V32.7032Z" fill="#FE4A0F"/>
<path d="M115.042 27.5733C114.712 28.8633 113.602 29.5233 111.922 29.5233C109.822 29.5233 108.472 28.2033 108.172 26.0733H119.032C119.062 25.7433 119.092 25.2933 119.092 24.7233C119.092 21.2733 116.962 17.3433 111.622 17.3433C106.492 17.3433 104.152 21.2733 104.152 25.1133C104.152 28.9233 106.792 32.9433 111.922 32.9433C115.642 32.9433 118.522 30.8433 119.122 27.5733H115.042ZM111.622 20.4033C113.632 20.4033 114.802 21.7533 114.922 23.4333H108.232C108.592 21.3333 109.732 20.4033 111.622 20.4033Z" fill="#FE4A0F"/>
<path d="M130.028 21.063V17.583H127.877C126.047 17.583 124.907 18.213 124.097 20.103V17.583H119.897V32.703H124.097V25.353C124.097 22.773 125.027 21.063 127.097 21.063H130.028Z" fill="#FE4A0F"/>
<path d="M144.428 17.583H140.228V25.863C140.228 27.783 138.938 29.223 137.108 29.223C135.398 29.223 134.198 27.903 134.198 26.073V17.583H130.028V27.003C130.028 30.453 132.248 32.943 135.638 32.943C137.708 32.943 139.388 32.043 140.228 30.603V32.703H144.428V17.583Z" fill="#FE4A0F"/>
<path d="M146.228 32.7032H150.398V11.0132H146.228V32.7032Z" fill="#FE4A0F"/>
<path d="M162.304 27.5733C161.974 28.8633 160.864 29.5233 159.184 29.5233C157.084 29.5233 155.734 28.2033 155.434 26.0733H166.294C166.324 25.7433 166.354 25.2933 166.354 24.7233C166.354 21.2733 164.224 17.3433 158.884 17.3433C153.754 17.3433 151.414 21.2733 151.414 25.1133C151.414 28.9233 154.054 32.9433 159.184 32.9433C162.904 32.9433 165.784 30.8433 166.384 27.5733H162.304ZM158.884 20.4033C160.894 20.4033 162.064 21.7533 162.184 23.4333H155.494C155.854 21.3333 156.994 20.4033 158.884 20.4033Z" fill="#FE4A0F"/>
</svg>
