<svg
  width="70"
  height="75"
  viewBox="0 0 70 75"
  fill="none"
  xmlns="http://www.w3.org/2000/svg"
>
  <g filter="url(#filter0_d_0_628)">
    <path
      d="M10.884 31.2036C10.884 17.8094 21.7422 6.95117 35.1365 6.95117C48.5307 6.95117 59.3889 17.8094 59.3889 31.2036V44.2985C59.3889 44.8499 58.9419 45.2968 58.3906 45.2968C49.3496 45.2968 41.0206 50.2025 36.6367 58.1095L35.5692 60.035C35.3907 60.3569 34.9214 60.3373 34.7704 60.0015C30.7457 51.0526 21.714 45.2968 11.9016 45.2968C11.3442 45.2968 10.884 44.845 10.884 44.2875V31.2036Z"
      fill="white"
    />
    <path
      d="M35.137 7.45117C48.2549 7.45143 58.8889 18.0862 58.8889 31.2041V44.2988C58.8887 44.5738 58.6659 44.7967 58.3909 44.7969C49.1682 44.7969 40.6715 49.8013 36.1995 57.8672L35.1819 59.7012C31.054 50.6248 21.8727 44.7969 11.9016 44.7969C11.615 44.7969 11.384 44.5631 11.384 44.2871V31.2041L11.3918 30.5908C11.7169 17.7559 22.2237 7.45117 35.137 7.45117Z"
      stroke="#FE4A0F"
    />
  </g>
  <defs>
    <filter
      id="filter0_d_0_628"
      x="0.884033"
      y="0.951172"
      width="68.5049"
      height="73.3142"
      filterUnits="userSpaceOnUse"
      color-interpolation-filters="sRGB"
    >
      <feFlood flood-opacity="0" result="BackgroundImageFix" />
      <feColorMatrix
        in="SourceAlpha"
        type="matrix"
        values="0 0 0 0 0 0 0 0 0 0 0 0 0 0 0 0 0 0 127 0"
        result="hardAlpha"
      />
      <feOffset dy="4" />
      <feGaussianBlur stdDeviation="5" />
      <feComposite in2="hardAlpha" operator="out" />
      <feColorMatrix
        type="matrix"
        values="0 0 0 0 0 0 0 0 0 0 0 0 0 0 0 0 0 0 0.1 0"
      />
      <feBlend
        mode="normal"
        in2="BackgroundImageFix"
        result="effect1_dropShadow_0_628"
      />
      <feBlend
        mode="normal"
        in="SourceGraphic"
        in2="effect1_dropShadow_0_628"
        result="shape"
      />
    </filter>
  </defs>
</svg>
