<svg width="16" height="13" viewBox="0 0 16 13" fill="none" xmlns="http://www.w3.org/2000/svg">
<path d="M9.05895 0.424109C9.22801 0.2551 9.45728 0.160156 9.69633 0.160156C9.93538 0.160156 10.1646 0.2551 10.3337 0.424109L15.7428 5.83323C15.9118 6.00229 16.0068 6.23155 16.0068 6.4706C16.0068 6.70965 15.9118 6.93892 15.7428 7.10798L10.3337 12.5171C10.1637 12.6813 9.93595 12.7722 9.69957 12.7701C9.4632 12.7681 9.23709 12.6733 9.06994 12.5061C8.90279 12.339 8.80797 12.1129 8.80592 11.8765C8.80387 11.6401 8.89473 11.4124 9.05895 11.2423L12.9292 7.37212L0.895172 7.37222C0.656074 7.37222 0.426769 7.27724 0.257702 7.10817C0.0886338 6.9391 -0.00634766 6.7098 -0.00634766 6.4707C-0.00634766 6.2316 0.0886338 6.0023 0.257702 5.83323C0.426769 5.66416 0.656074 5.56918 0.895172 5.56918L12.9292 5.56908L9.05895 1.69886C8.88994 1.5298 8.795 1.30053 8.795 1.06148C8.795 0.822433 8.88994 0.593169 9.05895 0.424109Z" fill="#FE4A0F"/>
</svg>
