<svg width="40" height="30" viewBox="0 0 40 30" fill="none" xmlns="http://www.w3.org/2000/svg">
<path d="M29.8861 26.5515C29.7929 27.4357 29.3802 28.2555 28.7256 28.8572C28.071 29.4589 27.2193 29.801 26.3304 29.8195C25.4416 29.8379 24.5763 29.5315 23.8973 28.9576C23.2182 28.3837 22.7719 27.5817 22.642 26.7022L22.2357 24.2281L24.0205 24.5294C24.7383 24.6528 25.4429 24.8439 26.1248 25.0999L29.7766 26.4694L29.8861 26.5515ZM27.1701 11.0087C26.1957 11.4185 25.177 11.7142 24.1346 11.8897L22.7059 12.1316C21.596 12.3187 20.5882 12.8929 19.8615 13.7523C19.1348 14.6118 18.736 15.7009 18.736 16.8265C18.736 17.952 19.1348 19.0411 19.8615 19.9005C20.5882 20.76 21.596 21.3342 22.7059 21.5212L24.4952 21.8225C25.3918 21.9712 26.2712 22.2097 27.12 22.5346L27.2249 22.5756C26.5377 20.699 26.1975 18.713 26.2207 16.7146C26.1987 14.7716 26.5201 12.8399 27.1701 11.0087ZM39.2255 16.7146C39.2255 21.6855 37.0207 25.4286 34.0902 25.4286C31.1596 25.4286 28.9595 21.681 28.9595 16.7146C28.9595 11.7482 31.1642 7.98689 34.0902 7.98689C37.0161 7.98689 39.2255 11.7482 39.2255 16.7146ZM33.223 16.8333V19.5721C33.9941 19.5721 34.7337 19.2658 35.279 18.7205C35.8242 18.1752 36.1306 17.4356 36.1306 16.6644C36.1306 15.8932 35.8242 15.1536 35.279 14.6083C34.7337 14.063 33.9941 13.7567 33.223 13.7567V16.4954M23.6827 9.19197C24.5161 9.0474 25.3306 8.81008 26.1111 8.48445L29.8177 6.93245V4.65009C29.8175 4.16038 29.7229 3.67528 29.5392 3.22134L22.4274 9.40195L23.6827 9.19197ZM17.5706 9.99534L27.6814 1.20375C27.1656 0.950947 26.5988 0.819774 26.0244 0.820314H4.76203C4.18933 0.82159 3.62436 0.952688 3.10962 1.20375L13.2433 9.99534C13.8461 10.5112 14.6135 10.7948 15.4069 10.7948C16.2003 10.7948 16.9677 10.5112 17.5706 9.99534ZM15.982 16.8241C15.9831 15.6179 16.2742 14.4296 16.8311 13.3596C16.3574 13.4757 15.8718 13.5355 15.3841 13.5375C14.2548 13.5369 13.148 13.2206 12.1888 12.6246L3.39263 20.3115C3.82935 20.4808 4.29368 20.5674 4.76203 20.5672H16.9863C16.3292 19.4291 15.9829 18.1383 15.982 16.8241ZM1.23352 3.19852C1.04978 3.65247 0.955247 4.13756 0.955078 4.62728V16.7465C0.96306 17.3358 1.10676 17.9153 1.37503 18.4401L10.048 10.8718L1.23352 3.19852Z" fill="#FE4A0F"/>
</svg>
