<svg width="33" height="30" viewBox="0 0 33 30" fill="none" xmlns="http://www.w3.org/2000/svg">
<path d="M10.6663 0.590821C7.95892 0.590821 5.36239 1.66634 3.44796 3.58077C1.53352 5.49521 0.458008 8.09174 0.458008 10.7991C0.458008 13.5066 1.53352 16.1031 3.44796 18.0175C5.36239 19.9319 7.95892 21.0075 10.6663 21.0075H12.2267C12.0883 20.0402 12.0883 19.0581 12.2267 18.0908H10.6663C8.73247 18.0908 6.8778 17.3226 5.51035 15.9551C4.1429 14.5877 3.37467 12.733 3.37467 10.7991C3.37467 8.86528 4.1429 7.01062 5.51035 5.64317C6.8778 4.27571 8.73247 3.50749 10.6663 3.50749H22.333C23.4144 3.50727 24.4822 3.74757 25.4593 4.211C26.4363 4.67442 27.2981 5.34936 27.9821 6.18692C28.6661 7.02449 29.1553 8.0037 29.4141 9.05364C29.673 10.1036 29.6951 11.1979 29.4788 12.2575C30.338 13.0999 31.042 14.0873 31.5584 15.1741C32.2965 13.618 32.629 11.9004 32.5247 10.1812C32.4204 8.46207 31.8829 6.79722 30.9621 5.34168C30.0414 3.88614 28.7673 2.68723 27.2585 1.85656C25.7497 1.02589 24.0553 0.590466 22.333 0.590821H10.6663ZM15.0413 19.5491C15.0416 18.4122 15.3077 17.2911 15.8184 16.2754C16.3291 15.2597 17.0703 14.3774 17.9826 13.6991C18.895 13.0208 19.9534 12.5653 21.0732 12.3689C22.193 12.1724 23.3432 12.2406 24.432 12.5679C25.5208 12.8951 26.5179 13.4725 27.3438 14.2538C28.1698 15.035 28.8015 15.9986 29.1887 17.0676C29.5759 18.1365 29.7078 19.2812 29.5738 20.4101C29.4399 21.5391 29.0438 22.6211 28.4171 23.5698L32.114 27.2681L30.0519 29.3302L26.3536 25.6333C25.2545 26.3597 23.9792 26.7748 22.6631 26.8345C21.347 26.8941 20.0394 26.5961 18.8791 25.9721C17.7188 25.348 16.7493 24.4213 16.0736 23.2904C15.3978 22.1594 15.0411 20.8666 15.0413 19.5491Z" fill="#FE4A0F"/>
</svg>
