<svg width="30" height="31" viewBox="0 0 30 31" fill="none" xmlns="http://www.w3.org/2000/svg">
<path d="M27.3707 5.10574L24.2462 6.85955C24.1727 6.90078 24.0938 6.92033 24.016 6.92033C23.844 6.92033 23.6775 6.82503 23.5897 6.65704C23.4624 6.4133 23.5497 6.10848 23.7851 5.97653L26.9096 4.22273C27.1449 4.09078 27.4387 4.18119 27.5662 4.42523C27.6932 4.66866 27.6057 4.97349 27.3707 5.10574ZM21.6635 3.8727C21.7554 3.95578 21.8688 3.9964 21.9817 3.9964C22.1169 3.9964 22.2512 3.93806 22.347 3.82414L24.6813 1.04804C24.8572 0.839123 24.836 0.521777 24.6344 0.339432C24.4329 0.157393 24.1268 0.178774 23.9509 0.387996L21.6166 3.16409C21.441 3.37331 21.4619 3.69035 21.6635 3.8727ZM1.66375 25.2042C1.82137 25.2299 1.95631 25.335 2.02554 25.4837C2.0939 25.6331 2.08801 25.8078 2.00787 25.9511L0 29.5588L1.10043 30.2158L3.10858 26.6102C3.18784 26.4669 3.33102 26.3741 3.49042 26.3609C3.64922 26.3478 3.80419 26.4174 3.90496 26.5463L4.92583 27.8572V22.0277L0.0562733 24.9425L1.66375 25.2042ZM21.2495 9.17782L20.6467 6.84366L18.6321 6.73493L19.5581 10.3162L21.2495 9.17782ZM21.9422 9.90899L19.8215 11.3363L21.0601 16.1298C21.1048 16.3032 21.0571 16.4877 20.9346 16.6148C20.8423 16.7104 20.7189 16.7617 20.5922 16.7617C20.5503 16.7617 20.5085 16.7559 20.4667 16.7447L14.388 15.0556L15.5515 19.5558C15.6914 20.0962 15.6192 20.6622 15.3473 21.1496C15.0759 21.6365 14.639 21.9843 14.1167 22.1294L13.4732 22.3091C13.2993 22.3573 13.1229 22.3814 12.9473 22.3814C12.5946 22.3814 12.247 22.2852 11.9329 22.0967C11.4638 21.8155 11.1288 21.3625 10.9901 20.8228L9.73467 15.9676L8.62958 16.2742C6.22689 16.9419 3.74762 15.4597 3.10328 12.9688C2.83017 11.9105 2.93299 10.8382 3.32396 9.9029H2.99073C2.1048 9.9029 1.38444 10.6497 1.38444 11.5675V22.4205C1.38444 22.5995 1.41243 22.7742 1.46576 22.9401L5.1686 20.7232C5.31827 20.6341 5.503 20.6341 5.65267 20.7232C5.80292 20.813 5.89514 20.9789 5.89514 21.1585V24.0876H9.31308C9.58033 24.0876 9.79717 24.3124 9.79717 24.5894V27.3332L12.9449 24.2257C13.0351 24.1371 13.1547 24.0876 13.2787 24.0876H21.8084C22.6937 24.0876 23.4141 23.3402 23.4141 22.4205V11.5672C23.4141 10.6967 22.7657 9.9799 21.9422 9.90899ZM11.9261 20.5635C11.9983 20.8448 12.1727 21.0806 12.4182 21.2275C12.6642 21.375 12.9497 21.4147 13.2222 21.3393L13.8657 21.1597C14.1382 21.0837 14.3662 20.9016 14.5085 20.6466C14.6502 20.3922 14.6885 20.0967 14.6158 19.8161L13.3603 14.9603L10.6702 15.7077L11.9261 20.5635ZM7.46137 15.4301C7.76424 15.4301 8.07212 15.3897 8.37825 15.3045L13.1099 13.9902L11.2765 6.89559L6.54362 8.20987C4.65802 8.73432 3.53462 10.7527 4.03872 12.7096C4.46268 14.347 5.8975 15.4301 7.46137 15.4301ZM19.9075 15.5495L16.4117 2.02299L12.1594 6.43133L14.099 13.9356L19.9075 15.5495ZM28.7657 9.19982L25.2652 8.56599C25.0016 8.51866 24.7508 8.70099 24.7048 8.9744C24.6589 9.2474 24.8351 9.50765 25.0985 9.55532L28.5989 10.1891C28.6272 10.1943 28.6552 10.1967 28.6829 10.1967C28.9139 10.1967 29.1183 10.0247 29.1593 9.78099C29.2056 9.50765 29.0291 9.2474 28.7657 9.19982Z" fill="#FE4A0F"/>
</svg>
