<svg width="31" height="30" viewBox="0 0 31 30" fill="none" xmlns="http://www.w3.org/2000/svg">
<path d="M27.7198 0.488281H3.37252C1.66707 0.488281 0.273438 1.88192 0.273438 3.58737V5.92958H30.8189V3.58737C30.8189 1.88192 29.4252 0.488281 27.7198 0.488281ZM4.97427 3.84524H3.70154V2.57251H4.97427V3.84524ZM7.62009 3.84524H6.34736V2.57251H7.62009V3.84524ZM10.2659 3.84524H8.99318V2.57251H10.2659V3.84524ZM27.3908 3.84524H12.175V2.57251H27.3908V3.84524Z" fill="#FE4A0F"/>
<path d="M0.273438 26.5319C0.273438 28.1221 1.66707 29.4214 3.37252 29.4214H27.7198C29.4252 29.4214 30.8189 28.1221 30.8189 26.5319V7.20215H0.273438V26.5319ZM6.10255 11.4736C6.93618 11.4736 7.63617 11.9721 7.90343 12.6603H13.2743V11.1295H17.8307V12.6603H23.1889C23.4561 11.9721 24.1562 11.4736 24.9898 11.4736C26.0398 11.4736 26.8989 12.2746 26.8989 13.2536C26.8989 14.2385 26.0398 15.0335 24.9898 15.0335C24.1562 15.0335 23.4498 14.5411 23.1889 13.8469H20.1152C22.4443 15.17 24.0416 17.4661 24.3216 20.0589H26.008V24.3071H21.4516V20.0589H23.0425C22.6989 17.3238 20.6498 15.0039 17.8307 14.1733V15.3777H13.2743V14.1733C10.4616 15.0039 8.41255 17.3296 8.06252 20.0589H9.65343V24.3071H5.09708V20.0589H6.78346C7.06342 17.4661 8.6607 15.17 10.9898 13.8469H7.90343C7.64254 14.5411 6.93618 15.0335 6.10255 15.0335C5.05253 15.0335 4.19346 14.2385 4.19346 13.2536C4.19346 12.2746 5.05253 11.4736 6.10255 11.4736Z" fill="#FE4A0F"/>
</svg>
