<svg width="59" height="57" viewBox="0 0 59 57" fill="none" xmlns="http://www.w3.org/2000/svg">
<path d="M16.8621 17.8854C16.9436 16.9643 18.1244 16.6378 18.6675 17.3862L21.0064 20.609C24.2293 25.0499 29.1352 27.9716 34.5751 28.6898L37.2875 29.0479C38.1628 29.1635 38.4698 30.2738 37.7782 30.8227L35.2468 32.8315C31.1779 36.0604 28.5249 40.7458 27.8491 45.8961L27.426 49.1212C27.311 49.9974 26.1994 50.3047 25.6506 49.6121L23.5876 47.0079C20.3877 42.9688 15.7523 40.3206 10.6477 39.6154L7.528 39.1844C6.6591 39.0644 6.35473 37.9636 7.03855 37.4143L9.10853 35.7513C13.3537 32.3409 16.0247 27.3469 16.5048 21.9227L16.8621 17.8854Z" fill="#FE4A0F"/>
<path d="M38.4062 3.39364C38.4498 2.90198 39.08 2.72772 39.3699 3.12719L39.5762 3.41147C41.1647 5.60033 43.5828 7.0404 46.2641 7.39441C46.6955 7.45137 46.8468 7.99864 46.5059 8.26915L46.4628 8.3034C44.3622 9.97035 42.992 12.3937 42.6431 15.0526C42.5837 15.5055 42.0088 15.6658 41.7251 15.3077L41.6899 15.2632C40.0439 13.1855 37.6594 11.8232 35.0337 11.4605L34.9798 11.4531C34.5532 11.3941 34.4038 10.8537 34.7395 10.584C36.8237 8.90965 38.135 6.45787 38.3707 3.79485L38.4062 3.39364Z" fill="#FE4A0F"/>
<path d="M52.0107 23.7869C52.0375 23.4847 52.4249 23.3776 52.6031 23.6231L52.7299 23.7979C53.7063 25.1433 55.1926 26.0285 56.8407 26.246C57.1058 26.2811 57.1989 26.6175 56.9893 26.7837L56.9628 26.8048C55.6716 27.8294 54.8294 29.319 54.615 30.9533C54.5785 31.2317 54.2251 31.3302 54.0507 31.1101L54.0291 31.0827C53.0173 29.8056 51.5517 28.9683 49.9377 28.7453L49.9046 28.7408C49.6424 28.7046 49.5506 28.3724 49.7569 28.2066C51.038 27.1774 51.844 25.6704 51.9889 24.0335L52.0107 23.7869Z" fill="#FE4A0F"/>
</svg>
